<?xml version="1.0" standalone="no"?>
<!DOCTYPE svg PUBLIC "-//W3C//DTD SVG 20010904//EN"
 "http://www.w3.org/TR/2001/REC-SVG-20010904/DTD/svg10.dtd">
<svg version="1.0" xmlns="http://www.w3.org/2000/svg"
 width="512.000000pt" height="512.000000pt" viewBox="0 0 512.000000 512.000000"
 preserveAspectRatio="xMidYMid meet">
<metadata>
Created by potrace 1.11, written by Peter Selinger 2001-2013
</metadata>
<g transform="translate(0.000000,512.000000) scale(0.100000,-0.100000)"
fill="#000000" stroke="none">
<path d="M2268 3835 c-1 -1 -57 -6 -123 -9 -66 -4 -133 -9 -150 -11 -16 -2
-62 -6 -100 -9 -39 -4 -80 -8 -90 -10 -11 -2 -45 -7 -76 -10 -31 -4 -66 -8
-77 -11 -11 -2 -37 -6 -58 -10 -127 -20 -223 -40 -365 -75 -589 -149 -946
-409 -1046 -764 -34 -121 -17 -410 33 -536 26 -68 91 -163 128 -188 53 -36
144 -51 291 -47 134 4 147 5 275 31 180 35 355 110 438 188 59 55 76 99 77
206 1 52 -3 118 -8 145 -26 150 -5 261 61 322 25 23 100 67 103 61 1 -2 2 -44
4 -95 2 -96 13 -128 59 -166 38 -32 69 -39 185 -41 110 -2 114 -2 137 -29 20
-23 27 -48 26 -97 0 -3 -2 -32 -6 -65 -5 -55 -9 -63 -48 -98 -24 -21 -75 -59
-115 -84 -75 -48 -88 -68 -107 -168 -4 -16 -9 -41 -11 -55 -3 -14 -7 -36 -10
-50 -15 -80 -50 -191 -72 -230 -100 -174 -293 -372 -488 -504 -67 -46 -302
-166 -323 -166 -24 0 -75 -57 -116 -130 -56 -99 -158 -309 -202 -418 -53 -127
-81 -252 -89 -402 -4 -78 13 -114 65 -132 28 -10 465 -13 2095 -13 1963 0
2062 1 2096 18 20 10 41 28 47 41 10 22 8 135 -3 194 -3 15 -8 47 -11 72 -14
104 -69 241 -200 505 -91 181 -132 241 -182 262 -146 59 -308 151 -422 237
-108 81 -259 238 -333 346 -82 119 -97 155 -128 305 -48 240 -46 235 -133 289
-39 25 -90 62 -114 83 -40 36 -43 42 -48 103 -10 108 -8 124 19 156 23 26 29
27 128 30 129 3 157 9 190 38 52 46 62 71 64 169 2 103 1 102 72 61 94 -55
123 -164 95 -364 -12 -86 -9 -214 6 -251 66 -162 434 -302 797 -304 140 0 187
7 248 35 124 58 211 307 202 575 -14 444 -380 754 -1100 934 -126 31 -143 35
-242 51 -34 6 -68 12 -75 15 -7 2 -71 11 -143 20 -71 9 -141 18 -155 20 -14 2
-65 7 -115 10 -49 4 -108 9 -130 12 -47 5 -721 13 -727 8z m193 -632 c0 -4 2
-15 4 -24 2 -13 -7 -18 -36 -23 -21 -3 -40 -12 -40 -19 -1 -6 -2 -21 -3 -32
-1 -18 -8 -20 -86 -19 -125 1 -333 22 -405 40 -24 6 -42 43 -22 45 7 0 19 2
27 3 26 5 151 17 240 22 47 3 86 7 87 7 6 7 233 6 234 0z m539 -7 c19 -2 76
-7 125 -12 50 -4 93 -8 98 -10 4 -1 13 -2 21 -3 25 -2 6 -39 -23 -45 -186 -37
-485 -54 -487 -28 -1 6 -2 21 -3 32 -1 14 -11 21 -36 26 -40 7 -48 15 -39 39
6 15 23 16 158 10 83 -3 167 -7 186 -9z"/>
</g>
</svg>
