<?xml version="1.0" standalone="no"?>
<!DOCTYPE svg PUBLIC "-//W3C//DTD SVG 20010904//EN"
 "http://www.w3.org/TR/2001/REC-SVG-20010904/DTD/svg10.dtd">
<svg version="1.0" xmlns="http://www.w3.org/2000/svg"
 width="512.000000pt" height="512.000000pt" viewBox="0 0 512.000000 512.000000"
 preserveAspectRatio="xMidYMid meet">
<metadata>
Created by potrace 1.11, written by Peter Selinger 2001-2013
</metadata>
<g transform="translate(0.000000,512.000000) scale(0.100000,-0.100000)"
fill="#000000" stroke="none">
<path d="M2279 4956 c-2 -2 -51 -7 -109 -11 -58 -3 -120 -8 -137 -11 -18 -2
-48 -6 -65 -8 -18 -3 -55 -8 -83 -11 -27 -3 -88 -13 -135 -22 -47 -8 -98 -17
-115 -20 -113 -18 -484 -125 -577 -167 -18 -8 -62 -27 -98 -42 -441 -189 -724
-489 -789 -834 -10 -57 -8 -272 4 -325 3 -16 10 -48 15 -70 5 -22 9 -76 9
-120 1 -125 20 -205 58 -243 25 -25 26 -25 151 -19 70 4 136 8 147 11 11 2 43
7 70 10 28 4 78 13 113 21 34 8 75 17 91 20 38 7 251 69 321 94 30 11 57 18
58 16 2 -2 -7 -19 -21 -37 -112 -150 -307 -537 -434 -863 -66 -170 -166 -468
-179 -531 -1 -6 -9 -37 -18 -68 -9 -31 -29 -111 -43 -179 -26 -118 -27 -136
-31 -506 -4 -460 -8 -443 118 -525 l54 -36 1 -84 c1 -56 6 -90 15 -101 40 -48
195 -96 395 -122 75 -9 444 -10 506 -1 110 16 189 51 189 84 0 12 8 14 33 10
17 -3 84 -8 147 -11 63 -3 165 -8 225 -11 143 -6 671 -7 800 0 246 13 332 18
355 20 17 2 34 -8 55 -29 49 -52 145 -70 385 -70 268 0 399 15 560 63 56 16
123 52 135 72 4 6 7 49 7 94 0 80 1 84 29 105 15 11 32 21 37 21 22 0 101 91
107 123 8 42 0 773 -8 807 -4 14 -9 36 -12 50 -21 106 -31 150 -61 261 -129
478 -376 1056 -593 1384 -33 49 -58 91 -57 93 2 1 21 -4 42 -12 74 -29 292
-92 384 -111 8 -1 33 -8 55 -13 22 -6 58 -13 80 -16 22 -4 53 -9 68 -12 99
-21 283 -29 311 -15 49 26 78 123 78 259 0 42 8 115 18 162 25 120 21 326 -10
430 -96 331 -387 600 -860 793 -135 55 -437 145 -548 163 -15 2 -47 9 -72 14
-25 5 -76 15 -115 21 -111 17 -175 25 -270 34 -38 4 -83 9 -100 12 -35 6 -681
14 -686 9z m666 -740 c61 -3 130 -8 155 -11 25 -3 70 -7 100 -10 30 -3 56 -8
58 -10 5 -5 -109 -134 -159 -180 -167 -153 -329 -225 -519 -231 -242 -7 -447
97 -652 329 -38 43 -68 81 -66 83 9 8 141 21 313 30 61 3 111 7 112 8 5 5 554
-2 658 -8z"/>
</g>
</svg>
